<svg width="190" height="190" viewBox="0 0 190 190" fill="none" xmlns="http://www.w3.org/2000/svg">
<path d="M0 8C0 3.58172 3.58172 0 8 0H182C186.418 0 190 3.58172 190 8V182C190 186.418 186.418 190 182 190H8C3.58172 190 0 186.418 0 182V8Z" fill="#15141B"/>
<path d="M27.8977 81.0511V76.3636H60.625V81.0511H46.9034V120H41.6193V81.0511H27.8977ZM76.6477 120.682C73.6932 120.682 71.1009 119.979 68.8707 118.572C66.6548 117.166 64.9219 115.199 63.6719 112.67C62.4361 110.142 61.8182 107.187 61.8182 103.807C61.8182 100.398 62.4361 97.4219 63.6719 94.8793C64.9219 92.3366 66.6548 90.3622 68.8707 88.956C71.1009 87.5497 73.6932 86.8466 76.6477 86.8466C79.6023 86.8466 82.1875 87.5497 84.4034 88.956C86.6335 90.3622 88.3665 92.3366 89.6023 94.8793C90.8523 97.4219 91.4773 100.398 91.4773 103.807C91.4773 107.187 90.8523 110.142 89.6023 112.67C88.3665 115.199 86.6335 117.166 84.4034 118.572C82.1875 119.979 79.6023 120.682 76.6477 120.682ZM76.6477 116.165C78.892 116.165 80.7386 115.589 82.1875 114.439C83.6364 113.288 84.7088 111.776 85.4048 109.901C86.1009 108.026 86.4489 105.994 86.4489 103.807C86.4489 101.619 86.1009 99.581 85.4048 97.6918C84.7088 95.8026 83.6364 94.2756 82.1875 93.1108C80.7386 91.946 78.892 91.3636 76.6477 91.3636C74.4034 91.3636 72.5568 91.946 71.108 93.1108C69.6591 94.2756 68.5866 95.8026 67.8906 97.6918C67.1946 99.581 66.8466 101.619 66.8466 103.807C66.8466 105.994 67.1946 108.026 67.8906 109.901C68.5866 111.776 69.6591 113.288 71.108 114.439C72.5568 115.589 74.4034 116.165 76.6477 116.165ZM103.585 76.3636V80.1989C103.585 81.3636 103.372 82.6065 102.946 83.9276C102.534 85.2344 101.923 86.5057 101.113 87.7415C100.318 88.9631 99.3519 90.0284 98.2156 90.9375L95.4883 88.7216C96.3832 87.4432 97.1573 86.1151 97.8107 84.7372C98.4783 83.3452 98.8121 81.8608 98.8121 80.2841V76.3636H103.585ZM129.574 76.3636L142.528 113.097H143.04L155.994 76.3636H161.534L145.511 120H140.057L124.034 76.3636H129.574Z" fill="#A277FF"/>
<path d="M27.8977 81.0511H25.8977C25.8977 82.1557 26.7932 83.0511 27.8977 83.0511V81.0511ZM27.8977 76.3636V74.3636C26.7932 74.3636 25.8977 75.2591 25.8977 76.3636H27.8977ZM60.625 76.3636H62.625C62.625 75.2591 61.7296 74.3636 60.625 74.3636V76.3636ZM60.625 81.0511V83.0511C61.7296 83.0511 62.625 82.1557 62.625 81.0511H60.625ZM46.9034 81.0511V79.0511C45.7988 79.0511 44.9034 79.9466 44.9034 81.0511H46.9034ZM46.9034 120V122C48.008 122 48.9034 121.105 48.9034 120H46.9034ZM41.6193 120H39.6193C39.6193 121.105 40.5147 122 41.6193 122V120ZM41.6193 81.0511H43.6193C43.6193 79.9466 42.7239 79.0511 41.6193 79.0511V81.0511ZM29.8977 81.0511V76.3636H25.8977V81.0511H29.8977ZM27.8977 78.3636H60.625V74.3636H27.8977V78.3636ZM58.625 76.3636V81.0511H62.625V76.3636H58.625ZM60.625 79.0511H46.9034V83.0511H60.625V79.0511ZM44.9034 81.0511V120H48.9034V81.0511H44.9034ZM46.9034 118H41.6193V122H46.9034V118ZM43.6193 120V81.0511H39.6193V120H43.6193ZM41.6193 79.0511H27.8977V83.0511H41.6193V79.0511ZM68.8707 118.572L67.7991 120.261L67.804 120.264L68.8707 118.572ZM63.6719 112.67L61.875 113.549L61.879 113.557L63.6719 112.67ZM63.6719 94.8793L61.877 93.9969L61.8731 94.005L63.6719 94.8793ZM68.8707 88.956L67.804 87.2642L67.7991 87.2673L68.8707 88.956ZM84.4034 88.956L83.3318 90.6446L83.3366 90.6477L84.4034 88.956ZM89.6023 94.8793L87.8035 95.7535L87.8074 95.7616L89.6023 94.8793ZM89.6023 112.67L87.8094 111.784L87.8054 111.792L89.6023 112.67ZM84.4034 118.572L83.3366 116.881L83.3318 116.884L84.4034 118.572ZM82.1875 114.439L80.9437 112.873L80.9437 112.873L82.1875 114.439ZM85.4048 109.901L87.2798 110.597L87.2798 110.597L85.4048 109.901ZM85.4048 97.6918L87.2815 97.0003L87.2815 97.0003L85.4048 97.6918ZM82.1875 93.1108L83.4406 91.552L83.4406 91.552L82.1875 93.1108ZM71.108 93.1108L69.8548 91.552L69.8548 91.552L71.108 93.1108ZM67.8906 97.6918L66.0139 97.0003L66.0139 97.0003L67.8906 97.6918ZM67.8906 109.901L66.0156 110.597L66.0156 110.597L67.8906 109.901ZM71.108 114.439L72.3517 112.873L72.3517 112.873L71.108 114.439ZM76.6477 118.682C74.0238 118.682 71.8108 118.062 69.9375 116.881L67.804 120.264C70.3909 121.895 73.3625 122.682 76.6477 122.682V118.682ZM69.9424 116.884C68.059 115.689 66.565 114.01 65.4647 111.784L61.879 113.557C63.2788 116.388 65.2507 118.644 67.7991 120.261L69.9424 116.884ZM65.4687 111.792C64.3909 109.587 63.8182 106.944 63.8182 103.807H59.8182C59.8182 107.431 60.4813 110.697 61.875 113.549L65.4687 111.792ZM63.8182 103.807C63.8182 100.639 64.3918 97.9733 65.4707 95.7535L61.8731 94.005C60.4804 96.8704 59.8182 100.156 59.8182 103.807H63.8182ZM65.4667 95.7616C66.5678 93.5219 68.0618 91.8381 69.9424 90.6446L67.7991 87.2673C65.2479 88.8864 63.276 91.1514 61.877 93.9969L65.4667 95.7616ZM69.9375 90.6477C71.8108 89.4665 74.0238 88.8466 76.6477 88.8466V84.8466C73.3625 84.8466 70.3909 85.6329 67.804 87.2642L69.9375 90.6477ZM76.6477 88.8466C79.2719 88.8466 81.4754 89.4665 83.3318 90.6446L85.4751 87.2673C82.8996 85.6329 79.9327 84.8466 76.6477 84.8466V88.8466ZM83.3366 90.6477C85.2284 91.8406 86.7184 93.5211 87.8035 95.7535L91.4011 94.005C90.0145 91.1522 88.0387 88.8838 85.4702 87.2642L83.3366 90.6477ZM87.8074 95.7616C88.8978 97.9794 89.4773 100.642 89.4773 103.807H93.4773C93.4773 100.153 92.8068 96.8643 91.3971 93.9969L87.8074 95.7616ZM89.4773 103.807C89.4773 106.94 88.8987 109.581 87.8094 111.784L91.3951 113.557C92.8059 110.703 93.4773 107.435 93.4773 103.807H89.4773ZM87.8054 111.792C86.7213 114.01 85.2312 115.686 83.3366 116.881L85.4702 120.264C88.0358 118.646 90.0117 116.387 91.3991 113.549L87.8054 111.792ZM83.3318 116.884C81.4754 118.062 79.2719 118.682 76.6477 118.682V122.682C79.9327 122.682 82.8996 121.896 85.4751 120.261L83.3318 116.884ZM76.6477 118.165C79.2444 118.165 81.558 117.493 83.4313 116.005L80.9437 112.873C79.9192 113.686 78.5397 114.165 76.6477 114.165V118.165ZM83.4313 116.005C85.1891 114.609 86.4674 112.785 87.2798 110.597L83.5298 109.205C82.9502 110.766 82.0836 111.967 80.9437 112.873L83.4313 116.005ZM87.2798 110.597C88.0659 108.479 88.4489 106.21 88.4489 103.807H84.4489C84.4489 105.779 84.1358 107.572 83.5298 109.205L87.2798 110.597ZM88.4489 103.807C88.4489 101.404 88.0659 99.1294 87.2815 97.0003L83.5281 98.3832C84.1358 100.033 84.4489 101.835 84.4489 103.807H88.4489ZM87.2815 97.0003C86.4709 94.8001 85.1955 92.9628 83.4406 91.552L80.9344 94.6695C82.0773 95.5883 82.9467 96.805 83.5281 98.3832L87.2815 97.0003ZM83.4406 91.552C81.5671 90.0459 79.25 89.3636 76.6477 89.3636V93.3636C78.5341 93.3636 79.9101 93.8461 80.9344 94.6695L83.4406 91.552ZM76.6477 89.3636C74.0454 89.3636 71.7283 90.0459 69.8548 91.552L72.3611 94.6695C73.3853 93.8461 74.7614 93.3636 76.6477 93.3636V89.3636ZM69.8548 91.552C68.1 92.9628 66.8246 94.8001 66.0139 97.0003L69.7673 98.3832C70.3487 96.805 71.2182 95.5883 72.3611 94.6695L69.8548 91.552ZM66.0139 97.0003C65.2296 99.1294 64.8466 101.404 64.8466 103.807H68.8466C68.8466 101.835 69.1596 100.033 69.7673 98.3832L66.0139 97.0003ZM64.8466 103.807C64.8466 106.21 65.2295 108.479 66.0156 110.597L69.7656 109.205C69.1597 107.572 68.8466 105.779 68.8466 103.807H64.8466ZM66.0156 110.597C66.828 112.785 68.1064 114.609 69.8642 116.005L72.3517 112.873C71.2118 111.967 70.3453 110.766 69.7656 109.205L66.0156 110.597ZM69.8642 116.005C71.7374 117.493 74.0511 118.165 76.6477 118.165V114.165C74.7558 114.165 73.3762 113.686 72.3517 112.873L69.8642 116.005ZM103.585 76.3636H105.585C105.585 75.2591 104.689 74.3636 103.585 74.3636V76.3636ZM102.946 83.9276L101.042 83.3135L101.038 83.3263L102.946 83.9276ZM101.113 87.7415L99.4404 86.6454L99.4373 86.6501L101.113 87.7415ZM98.2156 90.9375L96.9544 92.4897C97.6848 93.0832 98.7301 93.0871 99.4649 92.4992L98.2156 90.9375ZM95.4883 88.7216L93.8498 87.5747C93.2482 88.4341 93.4129 89.6123 94.2271 90.2738L95.4883 88.7216ZM97.8107 84.7372L96.0074 83.8723L96.0036 83.8802L97.8107 84.7372ZM98.8121 76.3636V74.3636C97.7076 74.3636 96.8121 75.2591 96.8121 76.3636H98.8121ZM101.585 76.3636V80.1989H105.585V76.3636H101.585ZM101.585 80.1989C101.585 81.1197 101.416 82.154 101.042 83.3136L104.849 84.5416C105.327 83.059 105.585 81.6076 105.585 80.1989H101.585ZM101.038 83.3263C100.686 84.4451 100.157 85.5511 99.4404 86.6454L102.786 88.8375C103.689 87.4603 104.382 86.0237 104.853 84.5288L101.038 83.3263ZM99.4373 86.6501C98.7579 87.6935 97.9359 88.6 96.9662 89.3758L99.4649 92.4992C100.768 91.4568 101.878 90.2326 102.789 88.8328L99.4373 86.6501ZM99.4767 89.3853L96.7495 87.1694L94.2271 90.2738L96.9544 92.4897L99.4767 89.3853ZM97.1267 89.8685C98.0844 88.5005 98.9153 87.0756 99.6178 85.5942L96.0036 83.8802C95.3993 85.1545 94.682 86.3859 93.8498 87.5747L97.1267 89.8685ZM99.6141 85.6021C100.414 83.9342 100.812 82.1536 100.812 80.2841H96.8121C96.8121 81.568 96.5427 82.7561 96.0074 83.8724L99.6141 85.6021ZM100.812 80.2841V76.3636H96.8121V80.2841H100.812ZM98.8121 78.3636H103.585V74.3636H98.8121V78.3636ZM129.574 76.3636L131.46 75.6985C131.178 74.8986 130.422 74.3636 129.574 74.3636V76.3636ZM142.528 113.097L140.642 113.762C140.924 114.562 141.68 115.097 142.528 115.097V113.097ZM143.04 113.097V115.097C143.888 115.097 144.644 114.562 144.926 113.762L143.04 113.097ZM155.994 76.3636V74.3636C155.146 74.3636 154.39 74.8986 154.108 75.6985L155.994 76.3636ZM161.534 76.3636L163.412 77.053C163.637 76.4395 163.548 75.7547 163.174 75.2188C162.8 74.6829 162.188 74.3636 161.534 74.3636V76.3636ZM145.511 120V122C146.35 122 147.1 121.477 147.389 120.689L145.511 120ZM140.057 120L138.179 120.689C138.468 121.477 139.218 122 140.057 122V120ZM124.034 76.3636V74.3636C123.381 74.3636 122.768 74.6829 122.394 75.2188C122.02 75.7547 121.931 76.4395 122.157 77.053L124.034 76.3636ZM127.688 77.0288L140.642 113.762L144.415 112.431L131.46 75.6985L127.688 77.0288ZM142.528 115.097H143.04V111.097H142.528V115.097ZM144.926 113.762L157.88 77.0288L154.108 75.6985L141.154 112.431L144.926 113.762ZM155.994 78.3636H161.534V74.3636H155.994V78.3636ZM159.657 75.6743L143.634 119.311L147.389 120.689L163.412 77.053L159.657 75.6743ZM145.511 118H140.057V122H145.511V118ZM141.934 119.311L125.912 75.6743L122.157 77.053L138.179 120.689L141.934 119.311ZM124.034 78.3636H129.574V74.3636H124.034V78.3636Z" fill="#A277FF"/>
</svg>
